<svg width="35" height="35" viewBox="0 0 35 35" fill="none" xmlns="http://www.w3.org/2000/svg">
<g clip-path="url(#clip0_1_310)">
<path d="M26.8202 18.0735C26.693 17.8206 26.3849 17.7187 26.1319 17.8459C25.8789 17.9732 25.777 18.2814 25.9043 18.5343C27.0324 20.7766 27.6044 22.5744 27.6044 23.8779C27.6043 29.4495 23.0716 33.9822 17.5001 33.9822C11.9286 33.9822 7.26898 29.197 7.39593 23.878C7.48869 19.9916 12.8635 11.9102 16.2861 7.95831C17.0955 7.21832 17.9049 7.21839 18.7143 7.95838C20.295 9.78398 22.8512 13.142 24.8529 16.5976C24.9948 16.8426 25.3085 16.9262 25.5535 16.7843C25.7985 16.6423 25.8821 16.3286 25.7402 16.0836C23.7025 12.566 21.0994 9.1466 19.4895 7.28716C18.4548 6.09189 16.5457 6.09169 15.5109 7.28709C13.1397 10.0251 6.37061 18.9502 6.37061 23.8779C6.37054 30.0149 11.3632 35.0076 17.5001 35.0076C23.637 35.0076 28.6297 30.0149 28.6297 23.878C28.6297 22.413 28.0209 20.4601 26.8202 18.0735Z" fill="#8C62EC"/>
<path d="M10.0682 9.3138C11.8548 9.3138 13.3845 8.04047 13.7054 6.2861C13.7564 6.00753 13.5719 5.74045 13.2934 5.68953C13.0149 5.63867 12.7477 5.82303 12.6968 6.1016C12.465 7.36871 11.3595 8.28841 10.0682 8.28841C8.59475 8.28841 7.396 7.08966 7.396 5.61625C7.396 4.59872 8.89402 2.32501 9.97499 1.07534C10.0369 1.01874 10.0989 1.0186 10.161 1.07493C10.8095 1.82469 11.7546 3.13227 12.297 4.23128C12.4223 4.48517 12.7297 4.58935 12.9837 4.46412C13.2376 4.33881 13.3418 4.03133 13.2165 3.77745C12.5474 2.42174 11.4686 1.01915 10.9362 0.403638C10.3574 -0.124917 9.77859 -0.12478 9.19993 0.404048C8.41291 1.31377 6.37061 4.02361 6.37061 5.61625C6.37061 7.65506 8.02935 9.3138 10.0682 9.3138Z" fill="#8C62EC"/>
<path d="M16.4578 27.6117C16.1747 27.6117 15.9451 27.8412 15.9451 28.1244C15.9451 28.4075 16.1747 28.6371 16.4578 28.6371L23.8705 28.6371C24.1536 28.6371 24.3832 28.4076 24.3832 28.1244V21.7542C24.3832 21.4711 24.1536 21.2415 23.8705 21.2415H21.1981V15.3882C21.1981 15.105 20.9686 14.8755 20.6854 14.8755H14.3152C14.0321 14.8755 13.8025 15.105 13.8025 15.3882V21.2412H11.1299C10.8467 21.2412 10.6172 21.4708 10.6172 21.7539V28.1244C10.6172 28.4075 10.8467 28.6371 11.1299 28.6371H14.2231C14.5063 28.6371 14.7358 28.4075 14.7358 28.1244C14.7358 27.8412 14.5063 27.6117 14.2231 27.6117H11.6426V22.2666L16.9876 22.2711V27.6117H16.4578ZM14.8279 15.9009H20.1727V21.2416L14.8279 21.2413V15.9009ZM23.3578 22.267V27.6118H18.013V22.2712L23.3578 22.267Z" fill="#8C62EC"/>
<path d="M13.2533 24.3889C13.5358 24.3889 13.7649 24.1599 13.7649 23.8773C13.7649 23.5948 13.5358 23.3657 13.2533 23.3657C12.9708 23.3657 12.7417 23.5948 12.7417 23.8773C12.7417 24.1599 12.9708 24.3889 13.2533 24.3889Z" fill="#8C62EC"/>
<path d="M13.2533 26.5125C13.5358 26.5125 13.7649 26.2834 13.7649 26.0009C13.7649 25.7183 13.5358 25.4893 13.2533 25.4893C12.9708 25.4893 12.7417 25.7183 12.7417 26.0009C12.7417 26.2834 12.9708 26.5125 13.2533 26.5125Z" fill="#8C62EC"/>
<path d="M15.3768 24.3889C15.6594 24.3889 15.8884 24.1599 15.8884 23.8773C15.8884 23.5948 15.6594 23.3657 15.3768 23.3657C15.0943 23.3657 14.8652 23.5948 14.8652 23.8773C14.8652 24.1599 15.0943 24.3889 15.3768 24.3889Z" fill="#8C62EC"/>
<path d="M19.6234 24.3889C19.906 24.3889 20.135 24.1599 20.135 23.8773C20.135 23.5948 19.906 23.3657 19.6234 23.3657C19.3409 23.3657 19.1118 23.5948 19.1118 23.8773C19.1118 24.1599 19.3409 24.3889 19.6234 24.3889Z" fill="#8C62EC"/>
<path d="M19.6234 26.5125C19.906 26.5125 20.135 26.2834 20.135 26.0009C20.135 25.7183 19.906 25.4893 19.6234 25.4893C19.3409 25.4893 19.1118 25.7183 19.1118 26.0009C19.1118 26.2834 19.3409 26.5125 19.6234 26.5125Z" fill="#8C62EC"/>
<path d="M21.747 24.3889C22.0295 24.3889 22.2586 24.1599 22.2586 23.8773C22.2586 23.5948 22.0295 23.3657 21.747 23.3657C21.4644 23.3657 21.2354 23.5948 21.2354 23.8773C21.2354 24.1599 21.4644 24.3889 21.747 24.3889Z" fill="#8C62EC"/>
<path d="M16.4384 18.0178C16.7209 18.0178 16.95 17.7888 16.95 17.5062C16.95 17.2237 16.7209 16.9946 16.4384 16.9946C16.1558 16.9946 15.9268 17.2237 15.9268 17.5062C15.9268 17.7888 16.1558 18.0178 16.4384 18.0178Z" fill="#8C62EC"/>
<path d="M16.4384 20.1409C16.7209 20.1409 16.95 19.9118 16.95 19.6293C16.95 19.3467 16.7209 19.1177 16.4384 19.1177C16.1558 19.1177 15.9268 19.3467 15.9268 19.6293C15.9268 19.9118 16.1558 20.1409 16.4384 20.1409Z" fill="#8C62EC"/>
<path d="M18.5619 18.0178C18.8444 18.0178 19.0735 17.7888 19.0735 17.5062C19.0735 17.2237 18.8444 16.9946 18.5619 16.9946C18.2793 16.9946 18.0503 17.2237 18.0503 17.5062C18.0503 17.7888 18.2793 18.0178 18.5619 18.0178Z" fill="#8C62EC"/>
</g>
<defs>
<clipPath id="clip0_1_310">
<rect width="35" height="35" fill="white" transform="translate(0 0.00732422)"/>
</clipPath>
</defs>
</svg>
