<svg width="29" height="29" viewBox="0 0 29 29" fill="none" xmlns="http://www.w3.org/2000/svg">
<path d="M22.9406 9.19054C23.3645 9.18964 23.7807 9.07763 24.1479 8.86569C24.515 8.65375 24.8202 8.34928 25.033 7.98263C25.0755 7.90906 25.098 7.82555 25.098 7.74054C25.098 7.65553 25.0755 7.57203 25.033 7.49845C24.8209 7.13119 24.5159 6.82622 24.1486 6.61419C23.7813 6.40215 23.3647 6.29053 22.9406 6.29053C22.5165 6.29053 22.0999 6.40215 21.7326 6.61419C21.3653 6.82622 21.0603 7.13119 20.8482 7.49845C20.8056 7.57203 20.7832 7.65553 20.7832 7.74054C20.7832 7.82555 20.8056 7.90906 20.8482 7.98263C21.061 8.34927 21.3661 8.65373 21.7333 8.86567C22.1004 9.07761 22.5166 9.18963 22.9406 9.19054ZM22.9406 7.25721C23.1444 7.25767 23.3458 7.30093 23.5318 7.38419C23.7179 7.46745 23.8843 7.58886 24.0204 7.74054C23.8846 7.89259 23.7182 8.01424 23.5321 8.09754C23.346 8.18083 23.1445 8.22389 22.9406 8.22389C22.7367 8.22389 22.5351 8.18083 22.349 8.09754C22.1629 8.01424 21.9965 7.89259 21.8607 7.74054C21.9968 7.58886 22.1633 7.46746 22.3493 7.3842C22.5353 7.30094 22.7368 7.25767 22.9406 7.25721Z" fill="#8C62EC"/>
<path d="M26.0798 24.8249C25.7622 24.5645 25.3872 24.2866 24.9621 23.9961C27.0623 22.7442 28.5166 20.1159 28.5166 17.4074C28.5166 14.9523 27.5492 12.0101 25.388 10.9713C24.4942 10.5418 23.1191 10.3188 21.3133 11.3085C21.2269 10.4454 20.9647 9.72384 20.7178 9.04639C20.2513 7.76652 19.8829 6.75563 20.7322 5.05689L19.8677 4.62455C18.8321 6.69564 19.329 8.05894 19.8096 9.37741C20.089 10.1441 20.3737 10.9263 20.3714 11.9118C20.3473 11.9292 20.3239 11.9457 20.2998 11.9635C18.9731 10.9767 17.8405 10.6297 16.9165 10.6083V7.74072C16.916 7.63623 16.8821 7.53465 16.8198 7.45072L14.0166 3.71299V0.974056C14.0166 0.845868 13.9657 0.72293 13.8751 0.632288C13.7844 0.541645 13.6615 0.490723 13.5333 0.490723H4.83329C4.7051 0.490723 4.58217 0.541645 4.49152 0.632288C4.40088 0.72293 4.34996 0.845868 4.34996 0.974056V3.71299L1.54663 7.45072C1.48437 7.53465 1.45051 7.63623 1.44996 7.74072V18.2016C1.01705 18.464 0.70212 18.8834 0.570835 19.3723C0.366687 20.0767 0.416954 21.1002 1.8159 21.9783C2.14078 22.1777 2.48242 22.3484 2.83694 22.4885C1.40428 23.2674 1.23276 24.2225 1.2379 24.6556C1.24847 25.5407 1.94 26.311 2.99965 26.6183C3.15715 26.6632 3.32022 26.6856 3.48401 26.6847C4.35491 26.6847 5.43009 26.0956 6.68905 24.9266C7.06756 24.5752 7.41405 24.2174 7.70357 23.9013C7.75466 24.3307 7.90759 24.7417 8.14962 25.1001C8.73651 25.9693 9.85633 26.5921 11.8939 27.1827C13.8524 27.7503 17.5534 28.2883 20.6942 28.4624C21.4257 28.5029 22.1133 28.5228 22.7457 28.5228C23.5127 28.5293 24.2793 28.4899 25.0416 28.4049C26.5258 28.2217 27.3056 27.831 27.4956 27.1754C27.6857 26.5198 27.2358 25.7734 26.0798 24.8249ZM20.2456 13.0529C20.1773 13.3698 20.0883 13.6819 19.979 13.9871C19.7842 13.9426 19.6006 13.8586 19.4396 13.7402C19.2787 13.6217 19.1439 13.4715 19.0435 13.2987L18.2067 13.7828C18.4189 14.15 18.7241 14.455 19.0915 14.6671C19.4589 14.8791 19.8756 14.9907 20.2998 14.9907C20.724 14.9907 21.1407 14.8791 21.5081 14.6671C21.8755 14.455 22.1806 14.15 22.3929 13.7828L21.5561 13.2987C21.4336 13.5095 21.26 13.6861 21.0513 13.8122C21.1852 13.362 21.2746 12.8997 21.3183 12.4321C22.6799 11.5487 23.9306 11.3432 24.9691 11.8424C26.4887 12.5728 27.55 14.8612 27.55 17.4074C27.55 19.9293 26.0551 22.4525 24.0378 23.394C23.5473 23.0879 23.0112 22.7723 22.4368 22.4515C19.6898 20.9189 16.2743 19.3944 14.3161 18.8269C13.8942 18.7046 13.5053 18.6049 13.1446 18.5268C13.0822 18.1569 13.0506 17.7825 13.05 17.4074C13.05 14.8612 14.1112 12.5728 15.6307 11.8426C16.849 11.257 18.3592 11.6404 19.998 12.9515C20.0693 13.008 20.1551 13.0432 20.2456 13.0529ZM2.41663 8.22406H10.15V11.1241H2.41663V8.22406ZM11.1166 8.22406H15.95V10.7092C15.6953 10.7701 15.4479 10.858 15.2119 10.9713C13.0507 12.0101 12.0833 14.9523 12.0833 17.4074C12.0837 17.7253 12.1037 18.0429 12.1433 18.3584C11.8027 18.3173 11.459 18.3078 11.1166 18.33V8.22406ZM11.6 7.25739L13.5333 4.67959L15.4666 7.25739H11.6ZM5.31663 1.45739H13.05V3.39072H5.31663V1.45739ZM5.07496 4.35739H12.5666L10.3916 7.25739H2.89996L5.07496 4.35739ZM2.41663 12.0907H10.15V18.5388C10.1123 18.5534 10.0749 18.5685 10.0382 18.5846C9.64221 18.7575 9.29317 19.0225 9.02017 19.3575C8.94434 18.9358 8.84327 18.449 8.7115 17.9502C8.18738 15.9666 7.44275 14.822 6.49825 14.5484C5.43855 14.2412 4.44215 14.5224 3.96003 15.2648C3.7244 15.6278 3.35822 16.5268 4.1524 17.951C3.77783 17.8799 3.39779 17.8415 3.01656 17.8362H2.99844C2.8039 17.8355 2.60957 17.8488 2.41693 17.8759L2.41663 12.0907ZM3.2685 25.6898C2.62736 25.504 2.20964 25.0935 2.20426 24.644C2.19822 24.1319 2.76009 23.405 4.35594 22.9011C4.45485 22.8698 4.54107 22.8076 4.60188 22.7235C4.66268 22.6395 4.69484 22.5381 4.69359 22.4344C4.69235 22.3307 4.65776 22.2301 4.59496 22.1476C4.53215 22.065 4.44445 22.0049 4.34482 21.976C2.15828 21.3421 1.22732 20.5785 1.4992 19.6415C1.66087 19.0836 2.1497 18.8056 2.98025 18.8056C3.54485 18.8056 4.26749 18.9341 5.15247 19.1906C5.25211 19.2195 5.35839 19.2155 5.45562 19.1793C5.55284 19.1432 5.63584 19.0766 5.69235 18.9897C5.74886 18.9027 5.77588 18.7998 5.76942 18.6963C5.76296 18.5927 5.72336 18.494 5.65647 18.4147C4.57761 17.1355 4.49133 16.2209 4.7704 15.7914C5.01527 15.4144 5.58778 15.291 6.22892 15.4768C7.27527 15.7801 8.02782 18.6735 8.2414 20.687L7.75553 22.3632C6.49838 23.9505 4.31516 25.993 3.2688 25.6898H3.2685ZM26.5676 26.9071C26.5 27.1402 25.2859 27.7489 20.7478 27.4977C19.9861 27.4554 19.1917 27.3917 18.3988 27.3113L18.8708 25.6828L17.9424 25.4137L17.4235 27.204C15.3573 26.9587 13.3975 26.6125 12.1631 26.2547C10.3852 25.7395 9.39439 25.2167 8.95075 24.5597C8.54596 23.9602 8.53883 23.1332 8.92658 21.7942C9.31434 20.4553 9.76299 19.7602 10.4256 19.4701C10.7071 19.3469 11.0472 19.2847 11.4618 19.2847C12.1169 19.2847 12.9578 19.44 14.0465 19.7555C14.192 19.7978 14.3468 19.8462 14.5082 19.8989L13.2999 24.0682L14.2283 24.3373L15.4213 20.2212C17.3224 20.9353 19.8424 22.1114 21.9653 23.2959C22.4816 23.5839 22.942 23.854 23.3532 24.1067L22.8538 25.8307L23.7822 26.0998L24.2025 24.6498C26.2141 25.993 26.6195 26.7272 26.5676 26.9071Z" fill="#8C62EC"/>
</svg>
