<svg width="34" height="22" viewBox="0 0 34 22" fill="none" xmlns="http://www.w3.org/2000/svg">
<path d="M16.9669 0.290527C11.0576 0.290527 6.25 5.09813 6.25 11.0074C6.25 16.9167 11.0575 21.7243 16.9669 21.7243C22.8762 21.7243 27.6838 16.9168 27.6838 11.0074C27.6838 5.09806 22.8762 0.290527 16.9669 0.290527ZM16.9669 20.3697C11.8045 20.3697 7.60458 16.1698 7.60458 11.0074C7.60458 5.84505 11.8045 1.64511 16.9669 1.64511C22.1293 1.64511 26.3292 5.84505 26.3292 11.0074C26.3292 16.1698 22.1293 20.3697 16.9669 20.3697Z" fill="#8C62EC"/>
<path d="M21.5423 6.04608C21.2625 6.2943 21.2369 6.72242 21.4851 7.00221C22.4649 8.10666 23.0045 9.52904 23.0045 11.0072C23.0045 11.3813 23.3078 11.6845 23.6818 11.6845C24.0559 11.6845 24.3591 11.3813 24.3591 11.0072C24.3591 9.19744 23.6983 7.45579 22.4984 6.10324C22.2502 5.82352 21.8222 5.79792 21.5423 6.04608Z" fill="#8C62EC"/>
<path d="M16.9668 4.96933C17.3408 4.96933 17.6441 4.6661 17.6441 4.29204C17.6441 3.91797 17.3408 3.61475 16.9668 3.61475C12.8905 3.61475 9.57422 6.93103 9.57422 11.0072C9.57422 15.0834 12.8905 18.3997 16.9668 18.3997C17.3408 18.3997 17.6441 18.0965 17.6441 17.7224C17.6441 17.3483 17.3408 17.0451 16.9668 17.0451C13.6374 17.0451 10.9288 14.3365 10.9288 11.0072C10.9288 7.67794 13.6374 4.96933 16.9668 4.96933Z" fill="#8C62EC"/>
<path d="M6.27468 2.231C6.27468 1.85693 5.97146 1.55371 5.59739 1.55371C5.22332 1.55371 4.9201 1.85693 4.9201 2.231V6.55272C4.9201 6.61692 4.86375 6.67327 4.79954 6.67327H3.81463V2.82939C3.81463 2.45532 3.51141 2.1521 3.13734 2.1521C2.76327 2.1521 2.46005 2.45532 2.46005 2.82939V6.67327H1.47514C1.41093 6.67327 1.35458 6.61692 1.35458 6.55272V2.231C1.35458 1.85693 1.05136 1.55371 0.677289 1.55371C0.303223 1.55371 0 1.85693 0 2.231V6.55272C0 7.36614 0.66178 8.02785 1.47514 8.02785H2.46005V19.7837C2.46005 20.1578 2.76327 20.461 3.13734 20.461C3.51141 20.461 3.81463 20.1578 3.81463 19.7837V8.02785H4.79954C5.6129 8.02785 6.27468 7.36607 6.27468 6.55272V2.231Z" fill="#8C62EC"/>
<path d="M33.1223 2.16069C32.5024 1.25475 31.6528 0.755859 30.7298 0.755859C29.8068 0.755859 28.9571 1.25475 28.3372 2.16069C27.7712 2.988 27.4595 4.07546 27.4595 5.22292C27.4595 6.37039 27.7712 7.45784 28.3372 8.28515C28.8174 8.98689 29.4357 9.44311 30.119 9.61365V20.5814C30.119 20.9555 30.4223 21.2587 30.7963 21.2587C31.1703 21.2587 31.4736 20.9555 31.4736 20.5814V9.57647C32.1039 9.38216 32.6735 8.94097 33.1224 8.28502C33.6884 7.45771 34.0001 6.37025 34.0001 5.22279C34.0001 4.07532 33.6883 2.98793 33.1223 2.16069ZM30.7298 8.33534C29.6913 8.33534 28.8141 6.90998 28.8141 5.22285C28.8141 3.53573 29.6913 2.11037 30.7298 2.11037C31.7682 2.11037 32.6455 3.53573 32.6455 5.22285C32.6455 6.90998 31.7682 8.33534 30.7298 8.33534Z" fill="#8C62EC"/>
</svg>
