<svg width="20" height="20" viewBox="0 0 20 20" fill="none" xmlns="http://www.w3.org/2000/svg">
<g clip-path="url(#clip0_1_812)">
<path d="M9.89978 1.80111C9.83607 1.73936 9.7485 1.70635 9.6606 1.71027C9.08716 1.73282 8.51535 1.8132 7.9615 1.94978L8.11802 2.58433C8.51959 2.48532 8.9313 2.41834 9.3466 2.38403V8.56351H2.32998C2.41592 8.15835 2.5342 7.75971 2.68287 7.37382L2.07348 7.13856C1.86208 7.68619 1.70752 8.258 1.61407 8.83798C1.59872 8.93274 1.62584 9.02881 1.68792 9.102C1.75 9.17519 1.84084 9.21701 1.93657 9.21701H9.67334C9.85404 9.21701 10.0001 9.07063 10.0001 8.89026V2.0367C10.0001 1.94782 9.96415 1.86287 9.89978 1.80111Z" fill="#8C62EC"/>
<path d="M16.7959 5.0998L16.2731 5.49223C17.2994 6.85772 17.8418 8.4846 17.8418 10.1974C17.8418 10.3017 17.8392 10.4098 17.834 10.5242H11.3068V2.46621C11.826 2.55345 12.3351 2.69264 12.8249 2.88183L13.0605 2.27244C12.406 2.01954 11.7192 1.84865 11.0193 1.765C10.9248 1.75389 10.8334 1.7833 10.7634 1.84505C10.6932 1.90681 10.6533 1.99569 10.6533 2.08946V10.8509C10.6533 11.0313 10.7994 11.1777 10.9801 11.1777H18.1401C18.3104 11.1777 18.4522 11.0466 18.4659 10.8771C18.4858 10.6287 18.4953 10.4065 18.4953 10.1974C18.4953 8.34181 17.9075 6.57933 16.7959 5.0998Z" fill="#8C62EC"/>
<path d="M9.67313 9.87109H1.83114C1.65045 9.87109 1.50439 10.0175 1.50439 10.1978C1.50439 10.6543 1.54066 11.1114 1.61255 11.5571L2.25788 11.4532C2.20854 11.148 2.1775 10.837 2.16476 10.5246H9.34638V18.0111C8.71346 17.9588 8.09166 17.8307 7.49273 17.6288L7.28394 18.2483C8.04886 18.5061 8.84809 18.6531 9.66006 18.6848C9.66431 18.6848 9.66855 18.6852 9.6728 18.6852C9.7571 18.6852 9.83846 18.6525 9.89924 18.594C9.96393 18.5322 9.99988 18.4473 9.99988 18.3584V10.1978C9.99988 10.0175 9.85382 9.87109 9.67313 9.87109Z" fill="#8C62EC"/>
<path d="M18.1869 11.9565C18.1254 11.8771 18.0307 11.8311 17.9304 11.8311H10.9801C10.7994 11.8311 10.6533 11.9774 10.6533 12.1578V18.3053C10.6533 18.3987 10.6932 18.4876 10.7631 18.5497C10.8236 18.6033 10.9007 18.632 10.9801 18.632C10.9928 18.632 11.0059 18.6314 11.019 18.6297C11.3607 18.5889 11.7038 18.5265 12.0384 18.4441L11.8819 17.8096C11.6924 17.8563 11.4999 17.8962 11.3065 17.9285V12.4846H17.501C17.4785 12.5591 17.4546 12.6332 17.4298 12.7071L18.049 12.9159C18.1248 12.6911 18.1918 12.4623 18.247 12.2362C18.2712 12.1389 18.2489 12.0356 18.1869 11.9565Z" fill="#8C62EC"/>
<path d="M7.64633 3.20704C7.646 3.20672 7.64568 3.20672 7.64535 3.20672C7.18823 2.86363 6.64681 2.68229 6.07924 2.68229C5.98089 2.68229 5.8809 2.6898 5.77863 2.70254C5.46005 2.05166 4.90981 1.53507 4.23409 1.26223C4.50333 0.976654 4.84152 0.751523 5.21368 0.611675L4.98398 0C4.51444 0.176118 4.0877 0.461043 3.74919 0.823408C3.67077 0.907383 3.60118 0.992664 3.53648 1.0786C3.40578 1.06096 3.27377 1.04854 3.1385 1.04854C1.51684 1.04854 0.197754 2.36795 0.197754 3.98928C0.197754 5.61061 1.51684 6.93003 3.1385 6.93003C3.42048 6.93003 3.69266 6.88788 3.95112 6.81338C4.3246 7.33618 4.88073 7.70704 5.512 7.84688C5.51233 7.84688 5.51233 7.84721 5.51266 7.84721C5.70217 7.88904 5.89299 7.91027 6.07924 7.91027C6.70137 7.91027 7.30553 7.68612 7.77965 7.27965C7.77997 7.27932 7.77997 7.27932 7.7803 7.279C8.36028 6.78103 8.69324 6.05826 8.69324 5.29628C8.69324 4.4683 8.31159 3.70697 7.64633 3.20704ZM3.1385 6.27653C1.87757 6.27653 0.851253 5.25053 0.851253 3.98928C0.851253 2.72803 1.87757 1.70204 3.1385 1.70204C3.14732 1.70204 3.15549 1.70334 3.16431 1.70334C3.03655 1.98729 2.96532 2.25359 2.92611 2.46924L3.56883 2.58655C3.60771 2.37351 3.6858 2.09904 3.83905 1.81281C4.50333 2.02715 5.03364 2.53754 5.27805 3.18777C5.30125 3.24985 5.32184 3.31226 5.33948 3.37499C5.34177 3.38316 5.34373 3.39133 5.34569 3.3995C5.36105 3.45635 5.37444 3.51321 5.38555 3.57072C5.39013 3.59588 5.39339 3.62136 5.39732 3.64652C5.40385 3.689 5.41071 3.73148 5.41496 3.77428C5.4215 3.84486 5.42574 3.91674 5.42574 3.98928C5.42574 4.15756 5.40516 4.33204 5.36431 4.50783C5.12807 5.51978 4.22102 6.27653 3.1385 6.27653ZM5.34112 7.1117C5.04443 6.9908 4.7827 6.79737 4.57652 6.55165C5.05913 6.2798 5.45842 5.87724 5.72341 5.39038L5.34112 7.1117ZM8.01262 4.96953H6.73274L7.49962 3.94746C7.77082 4.23075 7.94857 4.58429 8.01262 4.96953ZM6.97682 3.55471L6.69124 3.93537L6.12009 4.69669L6.02729 4.5294V4.52907C6.04363 4.4415 6.05702 4.35295 6.06519 4.26277C6.07434 4.17128 6.07924 4.07979 6.07924 3.98928C6.07924 3.88113 6.07238 3.77461 6.06094 3.66939C6.05931 3.65404 6.05604 3.63901 6.05408 3.62365C6.04232 3.52922 6.02631 3.4361 6.00572 3.34461C6.0054 3.34232 6.00507 3.34003 6.00442 3.33742C6.35469 3.32206 6.6785 3.39983 6.97682 3.55471ZM5.97893 7.25416L6.25634 6.00533L7.08824 6.97577C6.75627 7.17542 6.37234 7.27442 5.97893 7.25416ZM7.58425 6.55002L6.78992 5.62303H8.01229C7.95446 5.96383 7.80677 6.28372 7.58425 6.55002Z" fill="#8C62EC"/>
<path d="M12.9406 6.27637H12.2871V6.92987H12.9406V6.27637Z" fill="#8C62EC"/>
<path d="M14.2477 6.92969H13.5942V7.58319H14.2477V6.92969Z" fill="#8C62EC"/>
<path d="M15.5549 9.2168H14.9014V9.8703H15.5549V9.2168Z" fill="#8C62EC"/>
<path d="M12.9406 8.89062H12.2871V9.54412H12.9406V8.89062Z" fill="#8C62EC"/>
<path d="M12.6139 7.58398H11.9604V8.23748H12.6139V7.58398Z" fill="#8C62EC"/>
<path d="M17.1887 7.91016H16.5352V8.56365H17.1887V7.91016Z" fill="#8C62EC"/>
<path d="M15.5549 6.60352H14.9014V7.25701H15.5549V6.60352Z" fill="#8C62EC"/>
<path d="M14.2477 8.2373H13.5942V8.8908H14.2477V8.2373Z" fill="#8C62EC"/>
<path d="M15.5549 7.91016H14.9014V8.56365H15.5549V7.91016Z" fill="#8C62EC"/>
<path d="M19.8026 0.395061C18.9511 0.395061 18.1401 0.616597 17.4102 0.997587C17.3465 0.85251 17.2599 0.713641 17.1419 0.595685C16.6979 0.151959 15.8794 0.381337 15.7872 0.408784C15.6823 0.440479 15.6 0.522493 15.5683 0.62738C15.5408 0.719196 15.3111 1.5377 15.7555 1.98208C15.8068 2.03306 15.8624 2.07684 15.9189 2.11768C15.7049 2.34249 15.5108 2.58788 15.3317 2.84568C15.2866 2.78033 15.2389 2.71629 15.1814 2.65878C14.7508 2.22845 13.9466 2.37582 13.8561 2.39444C13.7352 2.41895 13.6385 2.50946 13.6055 2.62839C13.5614 2.78948 13.3637 3.61387 13.795 4.04518C14.0117 4.26116 14.2838 4.38238 14.5534 4.40624C14.3587 4.99733 14.2479 5.62566 14.2479 6.27655H14.9014C14.9014 5.80701 14.9713 5.34891 15.0922 4.90878C15.2726 5.01072 15.4866 5.07182 15.7183 5.07182C16.343 5.07182 16.7733 4.33533 16.8204 4.25103C16.8756 4.15202 16.8756 4.03113 16.8204 3.9318C16.7792 3.85828 16.4453 3.28647 15.9447 3.14368C16.1453 2.86823 16.3695 2.61336 16.6145 2.38235C16.7812 2.74831 17.1942 3.00906 17.6788 3.00906C18.3035 3.00906 18.7338 2.27256 18.7809 2.18826C18.8361 2.08926 18.8361 1.96836 18.7809 1.86903C18.7528 1.81871 18.5852 1.53574 18.3228 1.31584C18.7943 1.14462 19.2919 1.04856 19.8026 1.04856V0.395061ZM14.9007 3.56224C14.8746 3.61354 14.8527 3.66713 14.8279 3.71941C14.8093 3.72431 14.7903 3.72856 14.7727 3.73673C14.6491 3.7926 14.4328 3.75829 14.2574 3.58283C14.1695 3.49493 14.1643 3.23713 14.1953 3.01069C14.3962 3.00154 14.6243 3.02572 14.7194 3.1208C14.8426 3.24399 14.9119 3.40671 14.9001 3.54558C14.8998 3.55113 14.9011 3.55669 14.9007 3.56224ZM16.1437 4.09158C16.0166 4.25789 15.8441 4.41833 15.7183 4.41833C15.5503 4.41833 15.3968 4.35494 15.3075 4.26867C15.3752 4.10628 15.451 3.94813 15.5333 3.79358C15.5921 3.77594 15.6539 3.76483 15.7183 3.76483C15.8444 3.76483 16.0166 3.92526 16.1437 4.09158ZM16.4227 1.65403C16.3531 1.62527 16.2829 1.58541 16.2179 1.52006C16.1296 1.43184 16.1244 1.19919 16.1555 0.995953C16.3473 0.967526 16.5874 0.965238 16.6799 1.05771C16.7616 1.1394 16.8165 1.2384 16.8429 1.33643C16.6982 1.43543 16.5583 1.54162 16.4227 1.65403ZM17.6788 2.35556C17.4177 2.35556 17.1886 2.20296 17.188 2.04743C17.189 2.04155 17.1932 2.01476 17.1939 2.00888C17.1978 1.9762 17.1955 1.94385 17.1896 1.91216C17.2609 1.86217 17.3334 1.81446 17.4066 1.76806C17.4896 1.72787 17.5811 1.70206 17.6788 1.70206C17.8049 1.70206 17.9771 1.86249 18.1042 2.02881C17.9771 2.19512 17.8046 2.35556 17.6788 2.35556Z" fill="#8C62EC"/>
<path d="M7.64372 13.2278C7.68946 13.0948 7.71299 12.9547 7.71299 12.8119C7.71299 12.0911 7.1268 11.5049 6.40599 11.5049C6.00768 11.5049 5.63682 11.6901 5.39307 11.9911C5.11925 11.8418 4.79185 11.7941 4.48503 11.864C4.19619 11.631 3.84068 11.5049 3.46525 11.5049C2.5644 11.5049 1.8315 12.2378 1.8315 13.1386C1.11069 13.1386 0.524503 13.7248 0.524503 14.4456C0.524503 14.6668 0.579397 14.8789 0.68265 15.0674C0.382367 15.3112 0.197754 15.6814 0.197754 16.0794C0.197754 16.8002 0.783942 17.3864 1.50475 17.3864C1.97723 17.3864 2.39253 17.1341 2.62191 16.7571L3.15091 17.8151L3.46982 19.7272C3.49596 19.8847 3.63222 20.0004 3.792 20.0004H6.40599C6.58668 20.0004 6.73274 19.854 6.73274 19.6736V17.7402L7.05492 15.8065C7.05786 15.7886 7.05949 15.7706 7.05949 15.7526C7.96034 15.7526 8.69324 15.1664 8.69324 14.4456C8.69324 13.8915 8.26029 13.4157 7.64372 13.2278ZM7.05949 15.0991C6.98238 15.0991 6.902 15.0897 6.79907 15.0684C6.70301 15.0485 6.60269 15.073 6.52656 15.1351C6.45043 15.1972 6.40599 15.2899 6.40599 15.3883V15.7258L6.08382 17.6595C6.08088 17.6772 6.07924 17.6951 6.07924 17.7131V19.3469H4.06875L3.78775 17.6592C3.78219 17.6272 3.77239 17.5961 3.75769 17.5667L2.77744 15.6062C2.72189 15.4958 2.60884 15.4259 2.485 15.4259H2.41965C2.3128 15.4259 2.21249 15.4782 2.15171 15.5657C2.09029 15.6536 2.07624 15.7657 2.11316 15.8657C2.14387 15.9493 2.15825 16.0173 2.15825 16.0794C2.15825 16.4398 1.86516 16.7329 1.50475 16.7329C1.14435 16.7329 0.851253 16.4398 0.851253 16.0794C0.851253 15.8088 1.02345 15.5634 1.27995 15.469C1.38647 15.4295 1.46489 15.338 1.48743 15.2262C1.50965 15.1148 1.4724 14.9998 1.38908 14.9227C1.25283 14.7966 1.178 14.627 1.178 14.4456C1.178 14.0852 1.4711 13.7921 1.8315 13.7921C1.89685 13.7921 1.96579 13.8059 2.04748 13.8353C2.14747 13.8712 2.25856 13.8562 2.34613 13.7951C2.43337 13.734 2.485 13.6343 2.485 13.5278V13.1386C2.485 12.5982 2.9248 12.1584 3.46525 12.1584C3.73155 12.1584 3.98151 12.2649 4.16841 12.4583C4.26088 12.5544 4.40302 12.5845 4.52653 12.5338C4.78041 12.4299 5.06534 12.4975 5.24963 12.6962C5.32706 12.7795 5.44241 12.8168 5.5535 12.7942C5.66492 12.772 5.75674 12.6933 5.79595 12.5868C5.89038 12.3306 6.13544 12.1584 6.40599 12.1584C6.7664 12.1584 7.05949 12.4515 7.05949 12.8119C7.05949 12.9723 6.99806 13.1278 6.88631 13.2501C6.80038 13.3442 6.77718 13.4791 6.82586 13.5964C6.87488 13.7137 6.98761 13.7921 7.11471 13.797C7.62444 13.817 8.03974 14.1081 8.03974 14.4456C8.03974 14.7998 7.59078 15.0991 7.05949 15.0991Z" fill="#8C62EC"/>
<path d="M17.597 13.1387H17.2546C16.1168 13.1387 15.1735 13.9925 15.0601 15.1247L14.919 16.5372L14.2573 16.9342L14.1518 16.8287C14.0907 16.7672 14.0077 16.7329 13.9208 16.7329H13.7574C13.1268 16.7329 12.6138 17.2459 12.6138 17.8765C12.6138 18.4552 13.0457 18.9349 13.6041 19.01C13.6793 19.5684 14.159 20.0004 14.7376 20.0004C15.3683 20.0004 15.8813 19.4874 15.8813 18.8568V18.6934C15.8813 18.6068 15.847 18.5235 15.7855 18.4624L15.68 18.3569L16.076 17.6968L17.7967 17.5403C18.94 17.4364 19.8023 16.4921 19.8023 15.3442C19.8023 14.1281 18.8132 13.1387 17.597 13.1387ZM15.0376 18.6385L15.2278 18.8287V18.8568C15.2278 19.127 15.0079 19.3469 14.7376 19.3469C14.4674 19.3469 14.2475 19.127 14.2475 18.8568V18.6934C14.2475 18.513 14.1015 18.3667 13.9208 18.3667H13.7574C13.4872 18.3667 13.2673 18.1468 13.2673 17.8765C13.2673 17.6063 13.4872 17.3864 13.7574 17.3864H13.7855L13.9757 17.5766C14.0815 17.6828 14.2459 17.7027 14.3749 17.6256L15.1771 17.1443L15.3235 17.2907L15.4699 17.4371L14.9886 18.2392C14.9115 18.368 14.9317 18.5323 15.0376 18.6385ZM17.7375 16.8894L16.0041 17.0469L15.5682 16.611L15.7107 15.1894C15.7904 14.3927 16.4541 13.7922 17.2546 13.7922H17.597C18.4525 13.7922 19.1488 14.4885 19.1488 15.3442C19.1488 16.152 18.5423 16.8162 17.7375 16.8894Z" fill="#8C62EC"/>
<path d="M3.97673 3.03753C3.74572 3.31429 3.36538 3.41199 3.05203 3.27475C2.78704 3.15843 2.607 2.88527 2.59327 2.5791L1.94043 2.60818C1.96494 3.16104 2.29822 3.65737 2.78932 3.87303C2.96806 3.95145 3.1579 3.98902 3.34709 3.98902C3.7699 3.98902 4.19043 3.80082 4.47829 3.45642L3.97673 3.03753Z" fill="#8C62EC"/>
<path d="M16.6674 14.6619C16.3397 14.9037 16.2152 15.2893 16.208 15.57L16.8615 15.587C16.8622 15.5602 16.8733 15.3223 17.0556 15.188C17.2232 15.0645 17.4663 15.0691 17.6617 15.1978L18.0218 14.6525C17.5987 14.3728 17.054 14.3767 16.6674 14.6619Z" fill="#8C62EC"/>
<path d="M4.63568 15.0746C4.24521 14.689 3.66719 14.4449 3.13818 14.4449V15.0984C3.70869 15.0984 4.44518 15.5738 4.44518 16.0787V17.3857H5.09868V16.0787C5.09868 15.6856 5.19409 14.7717 6.07893 14.7717V14.1182C5.39373 14.1182 4.89119 14.4717 4.63568 15.0746Z" fill="#8C62EC"/>
</g>
<defs>
<clipPath id="clip0_1_812">
<rect width="20" height="20" fill="white"/>
</clipPath>
</defs>
</svg>
