<svg width="20" height="20" viewBox="0 0 20 20" fill="none" xmlns="http://www.w3.org/2000/svg">
<g clip-path="url(#clip0_1_800)">
<path d="M11.9998 9H6.99984C6.91143 9 6.82665 9.03512 6.76413 9.09763C6.70162 9.16014 6.6665 9.24493 6.6665 9.33333C6.6665 9.42174 6.70162 9.50652 6.76413 9.56904C6.82665 9.63155 6.91143 9.66667 6.99984 9.66667H11.9998C12.0882 9.66667 12.173 9.63155 12.2355 9.56904C12.2981 9.50652 12.3332 9.42174 12.3332 9.33333C12.3332 9.24493 12.2981 9.16014 12.2355 9.09763C12.173 9.03512 12.0882 9 11.9998 9Z" fill="#8C62EC"/>
<path d="M5.06664 9.13333L4.29731 10.1593L3.90231 9.76433C3.83944 9.70361 3.75524 9.67002 3.66784 9.67078C3.58044 9.67153 3.49684 9.70659 3.43503 9.76839C3.37323 9.8302 3.33817 9.9138 3.33741 10.0012C3.33666 10.0886 3.37025 10.1728 3.43097 10.2357L4.09764 10.9023C4.16014 10.9649 4.24491 11 4.33331 11H4.35697C4.40467 10.9965 4.45106 10.9828 4.49299 10.9598C4.53492 10.9368 4.57141 10.905 4.59997 10.8667L5.59997 9.53333C5.62624 9.49831 5.64535 9.45846 5.65621 9.41606C5.66707 9.37366 5.66948 9.32953 5.66329 9.28619C5.6571 9.24286 5.64243 9.20117 5.62013 9.1635C5.59783 9.12584 5.56833 9.09293 5.53331 9.06667C5.49829 9.0404 5.45844 9.02129 5.41603 9.01043C5.37363 8.99957 5.3295 8.99716 5.28617 9.00335C5.24283 9.00954 5.20114 9.02421 5.16347 9.04651C5.12581 9.06881 5.0929 9.09831 5.06664 9.13333Z" fill="#8C62EC"/>
<path d="M5.06664 12.1333L4.29731 13.1593L3.90231 12.7643C3.83944 12.7036 3.75524 12.67 3.66784 12.6708C3.58044 12.6715 3.49684 12.7066 3.43503 12.7684C3.37323 12.8302 3.33817 12.9138 3.33741 13.0012C3.33666 13.0886 3.37025 13.1728 3.43097 13.2357L4.09764 13.9023C4.16014 13.9648 4.24491 14 4.33331 14H4.35697C4.40467 13.9965 4.45106 13.9828 4.49299 13.9598C4.53492 13.9368 4.57141 13.905 4.59997 13.8667L5.59997 12.5333C5.62624 12.4983 5.64535 12.4585 5.65621 12.4161C5.66707 12.3737 5.66948 12.3295 5.66329 12.2862C5.6571 12.2429 5.64243 12.2012 5.62013 12.1635C5.59783 12.1258 5.56833 12.0929 5.53331 12.0667C5.49829 12.0404 5.45844 12.0213 5.41603 12.0104C5.37363 11.9996 5.3295 11.9972 5.28617 12.0034C5.24283 12.0095 5.20114 12.0242 5.16347 12.0465C5.12581 12.0688 5.0929 12.0983 5.06664 12.1333Z" fill="#8C62EC"/>
<path d="M5.06664 15.1333L4.29731 16.1593L3.90231 15.7643C3.83944 15.7036 3.75524 15.67 3.66784 15.6708C3.58044 15.6715 3.49684 15.7066 3.43503 15.7684C3.37323 15.8302 3.33817 15.9138 3.33741 16.0012C3.33666 16.0886 3.37025 16.1728 3.43097 16.2357L4.09764 16.9023C4.16014 16.9649 4.24491 17 4.33331 17H4.35697C4.40467 16.9965 4.45106 16.9828 4.49299 16.9598C4.53492 16.9368 4.57141 16.905 4.59997 16.8667L5.59997 15.5333C5.65302 15.4626 5.67579 15.3737 5.66329 15.2862C5.65079 15.1987 5.60403 15.1197 5.53331 15.0667C5.46258 15.0136 5.37368 14.9908 5.28617 15.0034C5.19865 15.0159 5.11968 15.0626 5.06664 15.1333Z" fill="#8C62EC"/>
<path d="M17.452 11.354C17.2011 11.3291 16.9484 11.3283 16.6973 11.3517C16.7419 11.2902 16.7944 11.2349 16.8537 11.1873C17.065 11.0594 17.2214 10.8576 17.2924 10.6211C17.3635 10.3845 17.3443 10.1299 17.2384 9.90674C17.1325 9.68354 16.9476 9.50756 16.7195 9.4129C16.4913 9.31824 16.2361 9.31162 16.0033 9.39433V2C16.0026 1.73442 15.8966 1.47998 15.7085 1.2925C15.5204 1.10502 15.2656 0.999823 15 1H11.408C11.3149 0.895324 11.2007 0.811512 11.073 0.754065C10.9452 0.696619 10.8067 0.666835 10.6667 0.666667H9.33333C9.17833 0.459697 8.97724 0.29169 8.746 0.175969C8.51476 0.0602493 8.25974 0 8.00117 0C7.74259 0 7.48757 0.0602493 7.25633 0.175969C7.02509 0.29169 6.824 0.459697 6.669 0.666667H5.33333C5.19353 0.667069 5.05539 0.696966 4.92793 0.754406C4.80047 0.811845 4.68657 0.895533 4.59367 1H1C0.734784 1 0.48043 1.10536 0.292893 1.29289C0.105357 1.48043 0 1.73478 0 2L0 19C0 19.2652 0.105357 19.5196 0.292893 19.7071C0.48043 19.8946 0.734784 20 1 20H16.037C17.9113 20 20 17.7 20 14.4027C20 12.8333 18.881 11.4943 17.452 11.354ZM16.6207 10.1633C16.6428 10.2027 16.657 10.246 16.6623 10.2908C16.6676 10.3357 16.6639 10.3811 16.6515 10.4245C16.6391 10.4679 16.6182 10.5085 16.59 10.5437C16.5619 10.579 16.5269 10.6083 16.4873 10.63C16.1892 10.8638 15.9675 11.1812 15.8507 11.5417C15.6901 11.6008 15.5352 11.6744 15.388 11.7617C15.2919 11.8169 15.1848 11.8504 15.0743 11.8597C15.1234 11.5893 15.2076 11.3265 15.325 11.078C15.5046 10.6641 15.7935 10.3068 16.1607 10.0447C16.2376 10.0002 16.3289 9.98776 16.4149 10.0099C16.501 10.0321 16.5748 10.0872 16.6207 10.1633ZM11.077 12H7C6.91159 12 6.82681 12.0351 6.7643 12.0976C6.70179 12.1601 6.66667 12.2449 6.66667 12.3333C6.66667 12.4217 6.70179 12.5065 6.7643 12.569C6.82681 12.6315 6.91159 12.6667 7 12.6667H10.5047C10.3714 12.8756 10.263 13.0993 10.1817 13.3333H7C6.91159 13.3333 6.82681 13.3685 6.7643 13.431C6.70179 13.4935 6.66667 13.5783 6.66667 13.6667C6.66667 13.7551 6.70179 13.8399 6.7643 13.9024C6.82681 13.9649 6.91159 14 7 14H10.0277C10.0102 14.1335 10.0009 14.268 10 14.4027C10 14.6057 10.0083 14.8047 10.0237 15H7C6.91159 15 6.82681 15.0351 6.7643 15.0976C6.70179 15.1601 6.66667 15.2449 6.66667 15.3333C6.66667 15.4217 6.70179 15.5065 6.7643 15.569C6.82681 15.6315 6.91159 15.6667 7 15.6667H10.1087C10.1483 15.8967 10.2 16.1177 10.2593 16.3333H7C6.91159 16.3333 6.82681 16.3685 6.7643 16.431C6.70179 16.4935 6.66667 16.5783 6.66667 16.6667C6.66667 16.7551 6.70179 16.8399 6.7643 16.9024C6.82681 16.9649 6.91159 17 7 17H10.4803C10.6156 17.3478 10.7823 17.6825 10.9783 18L2 18.0133V3.33333C2 3.24493 2.03512 3.16014 2.09763 3.09763C2.16014 3.03512 2.24493 3 2.33333 3H4.595C4.68775 3.1043 4.80144 3.18789 4.92866 3.24532C5.05587 3.30276 5.19376 3.33275 5.33333 3.33333H10.6667C10.8065 3.33298 10.9447 3.3031 11.0723 3.24566C11.1998 3.18822 11.3137 3.10451 11.4067 3H13.6667C13.7551 3 13.8399 3.03512 13.9024 3.09763C13.9649 3.16014 14 3.24493 14 3.33333L14.003 9.841C13.391 9.61632 12.7205 9.60785 12.103 9.817C11.9909 9.85497 11.8916 9.92338 11.8162 10.0146C11.7408 10.1058 11.6923 10.2161 11.676 10.3333H7C6.91159 10.3333 6.82681 10.3685 6.7643 10.431C6.70179 10.4935 6.66667 10.5783 6.66667 10.6667C6.66667 10.7551 6.70179 10.8399 6.7643 10.9024C6.82681 10.9649 6.91159 11 7 11H11.7603C11.8051 11.1697 11.8642 11.3353 11.937 11.495C11.6218 11.6092 11.3303 11.7804 11.077 12ZM12.6083 11.3507C12.4962 11.137 12.4133 10.9092 12.362 10.6733C12.362 10.671 12.362 10.669 12.362 10.6667C12.3612 10.6187 12.3498 10.5714 12.3287 10.5283C12.3227 10.4977 12.3177 10.471 12.3133 10.4493C12.6411 10.338 12.9906 10.3058 13.3332 10.3551C13.6758 10.4045 14.0019 10.5341 14.285 10.7333C14.4067 10.8175 14.5208 10.9122 14.626 11.0163C14.5435 11.2271 14.4798 11.4447 14.4357 11.6667C13.8679 11.393 13.235 11.2836 12.6083 11.3507ZM15 1.66667C15.0888 1.66631 15.1742 1.70121 15.2373 1.7637C15.3004 1.8262 15.3361 1.91118 15.3367 2V9.88067C15.1878 10.039 15.055 10.2117 14.9403 10.3963C14.854 10.3221 14.7637 10.2526 14.67 10.188L14.6667 3.33333C14.6667 3.06812 14.5613 2.81376 14.3738 2.62623C14.1862 2.43869 13.9319 2.33333 13.6667 2.33333H11.6667V1.66667H15ZM5 1.66667C5 1.57826 5.03512 1.49348 5.09763 1.43097C5.16014 1.36845 5.24493 1.33333 5.33333 1.33333H6.84667C6.90529 1.33345 6.96291 1.3181 7.01371 1.28884C7.06451 1.25958 7.10669 1.21744 7.136 1.16667C7.22341 1.01476 7.34931 0.888571 7.50103 0.800828C7.65274 0.713084 7.82491 0.666885 8.00017 0.666885C8.17543 0.666885 8.34759 0.713084 8.49931 0.800828C8.65102 0.888571 8.77693 1.01476 8.86433 1.16667C8.89362 1.21739 8.93575 1.2595 8.98648 1.28876C9.03722 1.31802 9.09477 1.33339 9.15333 1.33333H10.6667C10.7551 1.33333 10.8399 1.36845 10.9024 1.43097C10.9649 1.49348 11 1.57826 11 1.66667V2.33333C11 2.42174 10.9649 2.50652 10.9024 2.56904C10.8399 2.63155 10.7551 2.66667 10.6667 2.66667H5.33333C5.24493 2.66667 5.16014 2.63155 5.09763 2.56904C5.03512 2.50652 5 2.42174 5 2.33333V1.66667ZM1 19.3333C0.911595 19.3333 0.82681 19.2982 0.764298 19.2357C0.701786 19.1732 0.666667 19.0884 0.666667 19V2C0.666667 1.9116 0.701786 1.82681 0.764298 1.7643C0.82681 1.70179 0.911595 1.66667 1 1.66667H4.33333V2.33333H2.33333C2.06812 2.33333 1.81376 2.43869 1.62623 2.62623C1.43869 2.81376 1.33333 3.06812 1.33333 3.33333V18.0133C1.33527 18.1883 1.40655 18.3554 1.53154 18.4779C1.65653 18.6004 1.82501 18.6683 2 18.6667H11.47C11.6801 18.9131 11.9158 19.1366 12.173 19.3333H1ZM16.037 19.3333H13.963C12.407 19.3333 10.6667 17.2247 10.6667 14.4027C10.6667 13.3243 11.3947 12.136 12.6127 12.0173C12.7333 12.0057 12.846 12 12.9563 12C13.4154 11.989 13.8686 12.1043 14.2667 12.3333C14.4879 12.467 14.7415 12.5376 15 12.5376C15.2585 12.5376 15.5121 12.467 15.7333 12.3333C16.2358 12.0505 16.817 11.9396 17.3883 12.0173C18.6067 12.1373 19.3347 13.3243 19.3347 14.4027C19.3333 17.2247 17.593 19.3333 16.037 19.3333Z" fill="#8C62EC"/>
<path d="M12.9608 12.667C12.8708 12.667 12.7768 12.6717 12.6782 12.6813C11.8365 12.764 11.3335 13.6217 11.3335 14.403C11.3335 14.4914 11.3686 14.5762 11.4311 14.6387C11.4936 14.7012 11.5784 14.7363 11.6668 14.7363C11.7552 14.7363 11.84 14.7012 11.9025 14.6387C11.965 14.5762 12.0002 14.4914 12.0002 14.403C12.0002 13.9273 12.3002 13.3883 12.7435 13.3447C12.8195 13.3373 12.8919 13.3337 12.9608 13.3337C13.0492 13.3337 13.134 13.2985 13.1965 13.236C13.259 13.1735 13.2942 13.0887 13.2942 13.0003C13.2942 12.9119 13.259 12.8271 13.1965 12.7646C13.134 12.7021 13.0492 12.667 12.9608 12.667Z" fill="#8C62EC"/>
<path d="M3.66667 7.33301V6.33301H4C4.26522 6.33301 4.51957 6.22765 4.70711 6.04011C4.89464 5.85258 5 5.59822 5 5.33301C5 5.06779 4.89464 4.81344 4.70711 4.6259C4.51957 4.43836 4.26522 4.33301 4 4.33301H3.33333C3.24493 4.33301 3.16014 4.36813 3.09763 4.43064C3.03512 4.49315 3 4.57794 3 4.66634V7.33301C3 7.42141 3.03512 7.5062 3.09763 7.56871C3.16014 7.63122 3.24493 7.66634 3.33333 7.66634C3.42174 7.66634 3.50652 7.63122 3.56904 7.56871C3.63155 7.5062 3.66667 7.42141 3.66667 7.33301ZM4.33333 5.33301C4.33333 5.42141 4.29821 5.5062 4.2357 5.56871C4.17319 5.63122 4.08841 5.66634 4 5.66634H3.66667V4.99967H4C4.08841 4.99967 4.17319 5.03479 4.2357 5.09731C4.29821 5.15982 4.33333 5.2446 4.33333 5.33301Z" fill="#8C62EC"/>
<path d="M7.3335 7.33301C7.3335 7.2446 7.29838 7.15982 7.23587 7.09731C7.17335 7.03479 7.08857 6.99967 7.00016 6.99967H6.00016V4.66634C6.00016 4.57794 5.96504 4.49315 5.90253 4.43064C5.84002 4.36813 5.75523 4.33301 5.66683 4.33301C5.57842 4.33301 5.49364 4.36813 5.43113 4.43064C5.36861 4.49315 5.3335 4.57794 5.3335 4.66634V7.33301C5.3335 7.42141 5.36861 7.5062 5.43113 7.56871C5.49364 7.63122 5.57842 7.66634 5.66683 7.66634H7.00016C7.08857 7.66634 7.17335 7.63122 7.23587 7.56871C7.29838 7.5062 7.3335 7.42141 7.3335 7.33301Z" fill="#8C62EC"/>
<path d="M7.88309 7.6459C7.9241 7.66129 7.96775 7.66845 8.01153 7.66696C8.05531 7.66547 8.09837 7.65536 8.13824 7.63722C8.17812 7.61908 8.21402 7.59326 8.24391 7.56123C8.2738 7.5292 8.29708 7.4916 8.31242 7.45057L8.60609 6.6669H9.39409L9.68775 7.45057C9.71159 7.51414 9.75427 7.56893 9.81008 7.60759C9.8659 7.64625 9.93219 7.66694 10.0001 7.6669C10.04 7.66676 10.0796 7.65965 10.1171 7.6459C10.1581 7.63056 10.1957 7.60727 10.2278 7.57739C10.2598 7.5475 10.2856 7.51159 10.3037 7.47172C10.3219 7.43185 10.332 7.38879 10.3335 7.34501C10.335 7.30122 10.3278 7.25758 10.3124 7.21657L9.31242 4.5499C9.28868 4.48622 9.24604 4.43131 9.19022 4.39255C9.13439 4.35378 9.06805 4.33301 9.00009 4.33301C8.93212 4.33301 8.86579 4.35378 8.80996 4.39255C8.75414 4.43131 8.7115 4.48622 8.68775 4.5499L7.68775 7.21657C7.67236 7.25758 7.66521 7.30122 7.6667 7.34501C7.66818 7.38879 7.67829 7.43185 7.69643 7.47172C7.71457 7.51159 7.74039 7.5475 7.77242 7.57739C7.80445 7.60727 7.84206 7.63056 7.88309 7.6459ZM9.14409 6.00023H8.85609L9.00009 5.61623L9.14409 6.00023Z" fill="#8C62EC"/>
<path d="M10.9998 7.66634C11.0882 7.66634 11.173 7.63122 11.2355 7.56871C11.2981 7.5062 11.3332 7.42141 11.3332 7.33301V5.82868L12.3838 7.50968C12.4222 7.57105 12.4795 7.61828 12.5471 7.64421C12.6146 7.67015 12.6888 7.67338 12.7584 7.65343C12.828 7.63347 12.8892 7.59142 12.9327 7.53361C12.9763 7.4758 12.9998 7.40539 12.9998 7.33301V4.66634C12.9998 4.57794 12.9647 4.49315 12.9022 4.43064C12.8397 4.36813 12.7549 4.33301 12.6665 4.33301C12.5781 4.33301 12.4933 4.36813 12.4308 4.43064C12.3683 4.49315 12.3332 4.57794 12.3332 4.66634V6.17068L11.2825 4.48968C11.2441 4.4283 11.1868 4.38107 11.1193 4.35514C11.0517 4.32921 10.9775 4.32597 10.9079 4.34593C10.8384 4.36588 10.7772 4.40794 10.7336 4.46574C10.6901 4.52355 10.6665 4.59396 10.6665 4.66634V7.33301C10.6665 7.42141 10.7016 7.5062 10.7641 7.56871C10.8266 7.63122 10.9114 7.66634 10.9998 7.66634Z" fill="#8C62EC"/>
</g>
<defs>
<clipPath id="clip0_1_800">
<rect width="20" height="20" fill="white"/>
</clipPath>
</defs>
</svg>
