<svg width="20" height="20" viewBox="0 0 20 20" fill="none" xmlns="http://www.w3.org/2000/svg">
<path d="M20 10C20 8.54157 18.4954 7.26829 16.1237 6.4627C16.1829 6.16555 16.2317 5.87348 16.267 5.58899C16.5296 3.472 16.0796 1.9629 15 1.33969C13.92 0.717037 12.3886 1.08126 10.6865 2.36708C10.4578 2.53981 10.2293 2.72817 10.0015 2.92809C8.11812 1.27684 6.26309 0.610201 5.00035 1.33969C4.88164 1.40797 4.76941 1.48887 4.66488 1.57985C4.47906 1.517 4.28086 1.48145 4.07406 1.48145C3.05301 1.48145 2.22223 2.31223 2.22223 3.33329C2.22223 4.22239 2.85238 4.96669 3.68941 5.14434C3.72262 5.56563 3.78516 6.00633 3.87648 6.46262C1.50473 7.26825 0 8.54153 0 10C0 11.4582 1.50426 12.7313 3.87531 13.537C3.38805 15.9922 3.7375 17.9313 5 18.6603C5.34395 18.8587 5.73133 18.9538 6.15164 18.9538C7.27496 18.9538 8.63059 18.2731 10.0013 17.0716C10.2291 17.2716 10.4577 17.4601 10.6865 17.6329C11.8461 18.5086 12.9265 18.9573 13.8386 18.9573C14.2658 18.9573 14.6561 18.8589 15 18.6602C15.2363 18.5238 15.4441 18.3426 15.621 18.1209C15.7204 18.1375 15.8219 18.1482 15.926 18.1482C16.947 18.1482 17.7778 17.3174 17.7778 16.2963C17.7778 15.3943 17.129 14.6418 16.2739 14.4784C16.2379 14.1737 16.1879 13.8598 16.1231 13.5375C18.4951 12.732 20 11.4586 20 10ZM11.1332 2.95829C12.1531 2.1877 13.0946 1.78587 13.8386 1.78587C14.1363 1.78587 14.4029 1.85024 14.6296 1.98137C15.4235 2.43946 15.7523 3.72129 15.532 5.4979C15.5019 5.74079 15.462 5.98934 15.4132 6.24255C14.5279 5.99352 13.544 5.80508 12.4889 5.68911C11.8609 4.83348 11.2059 4.07571 10.5476 3.43348C10.7425 3.26462 10.9379 3.10579 11.1332 2.95829ZM5.44957 10.9093C5.66648 11.3484 5.89969 11.7872 6.1509 12.2222C6.40219 12.6574 6.66469 13.0794 6.93586 13.4865C6.15777 13.3733 5.42438 13.2188 4.75316 13.03C4.92531 12.3535 5.15816 11.6407 5.44957 10.9093ZM5.44652 9.09297C5.15617 8.36715 4.92305 7.65454 4.75035 6.97079C5.42238 6.78157 6.15668 6.62688 6.93586 6.51352C6.66469 6.92055 6.40219 7.34262 6.1509 7.77778C5.89699 8.2177 5.66242 8.65692 5.44652 9.09297ZM6.79254 11.8519C6.43863 11.2388 6.11898 10.6193 5.83703 10.0036C6.11734 9.3886 6.43543 8.76676 6.79254 8.14817C7.14727 7.53383 7.52461 6.9479 7.91723 6.39524C8.58914 6.33067 9.28668 6.29633 10 6.29633C10.7128 6.29633 11.4098 6.33063 12.0813 6.39508C12.4729 6.94438 12.8511 7.53094 13.2075 8.14821C13.5609 8.76048 13.88 9.38223 14.163 10.002C13.8807 10.6182 13.5621 11.2377 13.2075 11.8519C12.8511 12.4692 12.4729 13.0557 12.0813 13.605C11.4098 13.6695 10.7128 13.7038 10 13.7038C9.28664 13.7038 8.58914 13.6694 7.91723 13.6049C7.52461 13.0521 7.14727 12.4662 6.79254 11.8519ZM13.8491 12.2222C14.1004 11.7871 14.3347 11.3488 14.5515 10.9104C14.8404 11.6342 15.0747 12.3467 15.2478 13.0297C14.5763 13.2187 13.8426 13.3733 13.0641 13.4865C13.333 13.0823 13.5957 12.6611 13.8491 12.2222ZM13.8491 7.77778C13.5959 7.33926 13.3338 6.91758 13.065 6.51368C13.8443 6.62704 14.5786 6.78184 15.2507 6.9711C15.0777 7.65727 14.8425 8.37044 14.5526 9.09508C14.335 8.6534 14.1003 8.21298 13.8491 7.77778ZM9.99793 3.93848C10.4978 4.42583 10.999 4.98434 11.4867 5.60247C11.0026 5.57169 10.5064 5.55555 10 5.55555C9.49227 5.55555 8.99469 5.5718 8.50922 5.60274C8.99125 4.99024 9.49074 4.43075 9.99793 3.93848ZM5.37039 1.98133C6.33086 1.42587 7.85684 2.04079 9.45352 3.43528C8.78547 4.08755 8.13172 4.84762 7.51359 5.68883C6.45801 5.80469 5.47367 5.99309 4.58797 6.24219C4.51527 5.86544 4.46238 5.49997 4.43234 5.14977C5.2825 4.98231 5.92594 4.2318 5.92594 3.33337C5.92594 2.80692 5.70402 2.33227 5.35012 1.99473C5.35707 1.99055 5.3634 1.98536 5.37039 1.98133ZM2.96297 3.33333C2.96297 2.72063 3.46137 2.22223 4.07406 2.22223C4.68676 2.22223 5.18516 2.72063 5.18516 3.33333C5.18516 3.94602 4.68676 4.44442 4.07406 4.44442C3.46137 4.44446 2.96297 3.94606 2.96297 3.33333ZM0.740742 10C0.740742 8.89024 2.03676 7.87591 4.04344 7.19036C4.2741 8.09235 4.60477 9.03891 5.02426 9.99606C4.59621 10.9693 4.26824 11.9162 4.04102 12.8088C2.0357 12.1233 0.740742 11.1093 0.740742 10ZM5.37039 18.0187C4.41012 17.4642 4.18023 15.8361 4.58859 13.758C5.47418 14.007 6.45828 14.1953 7.51359 14.3112C8.13172 15.1524 8.78547 15.9124 9.45352 16.5647C7.85715 17.9586 6.33129 18.5733 5.37039 18.0187ZM9.99793 16.0615C9.49074 15.5693 8.99125 15.0098 8.50922 14.3973C8.99469 14.4282 9.4923 14.4445 10 14.4445C10.5064 14.4445 11.0026 14.4283 11.4868 14.3975C10.999 15.0157 10.4978 15.5742 9.99793 16.0615ZM14.6296 18.0187C13.8368 18.4779 12.5615 18.1207 11.1332 17.0418C10.9377 16.8941 10.7421 16.735 10.547 16.566C11.2054 15.9238 11.8605 15.1668 12.4886 14.311C13.5433 14.1951 14.5268 14.0068 15.4118 13.7579C15.4602 14.0068 15.5002 14.2508 15.53 14.4882C14.6987 14.6701 14.0741 15.4113 14.0741 16.2963C14.0741 16.9317 14.3961 17.4932 14.8852 17.8269C14.8058 17.9007 14.7211 17.9659 14.6296 18.0187ZM17.037 16.2963C17.037 16.909 16.5386 17.4074 15.9259 17.4074C15.3132 17.4074 14.8148 16.909 14.8148 16.2963C14.8148 15.6836 15.3132 15.1852 15.9259 15.1852C16.5386 15.1852 17.037 15.6836 17.037 16.2963ZM15.9557 12.81C15.7239 11.9072 15.3927 10.9586 14.9748 10.0029C15.3952 9.0452 15.7273 8.09723 15.9585 7.19098C17.964 7.87653 19.2593 8.89059 19.2593 10C19.2593 11.1099 17.9629 12.1245 15.9557 12.81Z" fill="#8C62EC"/>
</svg>
