<svg width="186" height="186" viewBox="0 0 186 186" fill="none" xmlns="http://www.w3.org/2000/svg">
<g clip-path="url(#clip0_1_479)">
<path d="M93.0001 185.999C144.362 185.999 186 144.362 186 92.9996C186 41.6374 144.362 0 93.0001 0C41.6378 0 0.000488281 41.6374 0.000488281 92.9996C0.000488281 144.362 41.6378 185.999 93.0001 185.999Z" fill="#522671"/>
<path d="M46.4903 128.327C52.8492 128.327 59.2084 128.327 65.5669 128.327L65.6716 129.631L56.3483 143.764L46.3345 129.491L46.4903 128.327Z" fill="#B3B3B3"/>
<path d="M46.6129 124.782L46.4479 132.754L32.9219 140.151V163.983C34.2558 165.113 35.6203 166.208 37.0164 167.262H55.6909H78.4574V140.15L65.8871 132.337L65.1972 124.366L46.6129 124.782Z" fill="#FDD1A0"/>
<path d="M40.3632 101.534C40.3632 101.534 39.5876 99.829 37.5053 100.674C35.4233 101.519 37.5986 109.939 38.3942 111.113C39.1898 112.288 40.4707 111.541 40.9365 111.495C41.5995 116.515 41.6587 119.975 43.6683 122.092C45.5712 124.097 49.9299 128.181 52.2243 129.605C53.7785 129.933 54.9391 130.125 56.0301 130.183C57.121 130.125 58.281 129.933 59.8358 129.605C62.1314 128.181 66.489 124.097 68.3929 122.092C70.4026 119.975 70.4607 116.515 71.1237 111.495C71.5905 111.541 72.8703 112.287 73.6659 111.113C74.4619 109.939 76.639 101.519 74.556 100.674C72.474 99.8301 71.6973 101.534 71.6973 101.534C71.6973 101.534 73.7564 94.9218 70.0967 88.4129C67.5897 83.9514 61.8713 81.638 56.0301 81.468C50.1896 81.6377 44.4705 83.9514 41.9635 88.4129C38.3049 94.9218 40.3632 101.534 40.3632 101.534Z" fill="#FFE9D0"/>
<path d="M39.8154 135.1L43.0544 133.826L45.6642 131.48L54.8803 138.47H57.1758L66.3959 131.471L72.2448 135.101L82.4072 152.377L76.4792 184.537C58.1073 181.243 41.6082 172.554 28.6775 160.166L26.5327 153.756L39.8154 135.1Z" fill="#C3ADFE"/>
<path d="M69.2877 132.916L65.5666 128.328L57.1763 138.469L64.378 146.472L69.2873 132.917L69.2877 132.916Z" fill="#C3ADFF"/>
<path d="M42.7651 132.836L46.4909 128.329L54.8813 138.47L47.3933 146.389L42.7651 132.836Z" fill="#C3ADFF"/>
<path d="M42.7652 132.836L18.1034 140.856C17.1001 141.182 16.4701 142.035 16.2663 143.069L15.8853 145C24.9931 158.479 37.5423 169.44 52.2722 176.626L42.7662 132.836H42.7652V132.836Z" fill="white"/>
<path d="M42.7652 132.836L39.94 133.704L32.4561 146.472L41.9028 146.768L36.1027 150.07L46.8656 173.767C48.6311 174.778 50.4341 175.729 52.2705 176.626L42.7645 132.836L42.7652 132.836Z" fill="#EEF3F7"/>
<path d="M69.288 132.916L93.9585 140.856C94.9629 141.179 95.5918 142.035 95.7945 143.069L104.065 185.341C100.437 185.772 96.7452 186 93.0005 186C90.1989 186 87.427 185.868 84.6886 185.626L82.9143 179.608C82.8751 179.473 82.744 179.389 82.6037 179.406C82.4635 179.423 82.3578 179.534 82.3502 179.676L82.1366 185.365C74.1149 184.431 66.4036 182.482 59.1387 179.64L69.2888 132.917L69.288 132.916Z" fill="#EEF3F7"/>
<path d="M69.2879 132.916L70.8565 133.394L79.5975 146.553L70.1507 146.85L75.9508 150.152L62.0463 180.717C61.0694 180.372 60.0987 180.016 59.1382 179.64L69.2883 132.917V132.916H69.2879Z" fill="white"/>
<path d="M69.9007 103.503L71.3521 103.452L71.8189 101.797L73.1855 100.433C74.0887 93.634 74.3557 83.0541 67.6074 83.3589C67.6074 83.3589 66.9985 75.6436 54.8271 77.1563C42.655 78.6686 37.1546 86.5267 37.8107 93.0829C38.466 99.639 38.2016 100.432 38.2016 100.432L39.5682 101.798L39.7749 103.682L40.969 103.606C40.969 103.606 41.3425 101.085 41.7181 99.9754C42.0927 98.867 41.9764 96.6223 41.9764 96.6223C41.9764 96.6223 56.3533 97.5382 60.2386 92.5965C62.638 89.5442 68.1494 84.2559 68.4269 91.5804C68.509 93.752 67.7018 97.007 69.2476 99.376C70.7933 101.746 69.9029 103.505 69.9029 103.505L69.9007 103.503Z" fill="#666666"/>
<path d="M59.1369 179.639L59.9165 176.053L57.2758 140.793L58.7144 140.179L57.1762 138.469H54.8807L53.3029 140.138L54.7837 140.792L52.208 176.338L52.2709 176.626C54.5112 177.719 56.8002 178.726 59.1365 179.64V179.638H59.1369V179.639Z" fill="#522671"/>
<path d="M80.1981 171.008C77.5269 170.547 75.7356 168.008 76.1969 165.337C76.6583 162.666 79.1976 160.874 81.8674 161.335C84.5393 161.796 86.3307 164.335 85.8693 167.007C85.4086 169.678 82.8693 171.469 80.1981 171.008Z" fill="#FEFEFE"/>
<path d="M80.2472 170.727C77.7319 170.292 76.0451 167.902 76.4785 165.386C76.913 162.871 79.3049 161.183 81.8195 161.617C84.3349 162.052 86.0216 164.444 85.5882 166.959C85.1537 169.475 82.7629 171.161 80.2472 170.727Z" fill="#522671"/>
<path d="M80.5976 168.692C79.2062 168.451 78.2726 167.129 78.5127 165.738C78.754 164.345 80.0774 163.413 81.4677 163.653C82.8598 163.894 83.7934 165.215 83.5536 166.608C83.3135 167.999 81.9897 168.933 80.5976 168.692Z" fill="#EBECEC"/>
<path d="M80.8989 163.926L82.0233 164.12L82.6274 160.62L81.5038 160.427L80.8989 163.926Z" fill="#FEFEFE"/>
<path d="M43.7353 171.886L45.3676 171.562C46.2623 171.384 47.0038 170.857 47.4753 170.15C47.9468 169.444 48.1528 168.557 47.9745 167.663L45.4976 155.185C44.5629 150.477 40.8799 148.076 36.6713 147.543C35.0584 147.339 33.3676 147.414 31.7296 147.738C30.0908 148.063 28.5011 148.639 27.0891 149.443C25.1938 150.523 23.6168 152.008 22.6621 153.841C22.8728 154.084 23.0882 154.321 23.3008 154.561C24.1516 152.737 25.6715 151.264 27.5239 150.21C28.8531 149.453 30.3531 148.909 31.9014 148.602C33.449 148.295 35.0431 148.226 36.562 148.418C40.4146 148.905 43.7829 151.087 44.6297 155.357L47.1066 167.835C47.237 168.491 47.0855 169.141 46.7397 169.659C46.3927 170.176 45.8496 170.564 45.1932 170.693L43.0872 171.111L43.1712 171.534C43.3579 171.652 43.5464 171.768 43.7335 171.886H43.7353Z" fill="#C3ADFF"/>
<path d="M46.1655 157.034L45.7873 155.128C44.8239 150.274 41.0345 147.799 36.7071 147.251C35.0632 147.043 33.3413 147.118 31.6731 147.45C30.0035 147.78 28.3847 148.368 26.9457 149.188C25.037 150.275 23.4419 151.764 22.4556 153.596C22.8054 154.003 23.1607 154.404 23.5171 154.804C24.3308 152.981 25.8319 151.511 27.669 150.464C28.9717 149.723 30.4409 149.19 31.959 148.889C33.4761 148.589 35.0385 148.521 36.5269 148.709C40.2593 149.18 43.523 151.29 44.3414 155.415L44.7196 157.32L46.1655 157.034Z" fill="#4D4D4D"/>
<path d="M44.1552 171.992L43.9656 172.03C43.206 171.558 42.4551 171.075 41.71 170.582C42.1245 170.531 42.523 170.694 42.7856 170.989L43.9111 170.764L44.1541 171.992H44.1552Z" fill="#2A7307"/>
<path d="M32.3578 147.337L31.928 145.173L31.0743 145.343L30.2217 145.512L30.6562 147.698C30.9809 147.603 31.3108 147.523 31.6436 147.457C31.8801 147.41 32.118 147.37 32.3581 147.338L32.3578 147.337Z" fill="#666666"/>
<path d="M80.4619 168.668C79.1461 168.441 78.2626 167.19 78.4904 165.874C78.7174 164.558 79.9682 163.674 81.2844 163.902C82.6002 164.13 83.4837 165.381 83.2559 166.697C83.0281 168.013 81.777 168.896 80.4612 168.668H80.4619Z" fill="#FEFEFE"/>
<path d="M42.7769 133.485C42.7388 133.485 29.4459 133.595 31.6921 145.225L30.4562 145.462C27.9256 132.351 42.721 132.23 42.7627 132.23L42.7769 133.485Z" fill="#4D4D4D"/>
<path d="M69.3025 132.289C71.4713 132.347 75.6639 132.937 78.8902 136.862C82.0482 140.703 84.2617 147.759 82.6055 160.692L81.3591 160.535C82.9619 148.017 80.8915 141.277 77.9192 137.661C75.0158 134.128 71.2297 133.596 69.272 133.543L69.3014 132.289H69.3025Z" fill="#4D4D4D"/>
<path d="M130.403 125.071L128.54 134.433L122.298 136.579L125.071 180.322C134.236 176.954 142.723 172.185 150.274 166.274L150.85 135.479L146.863 134.225L144.832 124.675L130.401 125.072L130.403 125.071Z" fill="#FDD1A0"/>
<path d="M120.882 152.836C131.274 157.876 141.963 158.932 153.216 153.121L153.121 163.948C143.712 171.929 132.696 178.075 120.627 181.827L120.882 152.838V152.836Z" fill="#C3ADFF"/>
<path d="M148.87 134.936L166.972 139.874C168.77 140.429 170.493 141.179 171.944 142.172C163.692 155.392 152.212 166.386 138.609 174.059L148.871 134.936L148.87 134.936Z" fill="#EEF3F7"/>
<path d="M148.698 134.809L151.084 135.771L159.219 147.987L149.683 147.833L155.593 150.997L142.029 172.034C140.895 172.739 139.745 173.42 138.58 174.077L148.698 134.809H148.698V134.809Z" fill="white"/>
<path d="M127.693 134.75L109.506 139.367C104.787 140.734 100.546 143.434 100.324 148.419L98.6562 185.822C103.378 185.539 108.004 184.905 112.51 183.942L113.37 172.382L114.764 183.431C122.332 181.616 129.541 178.876 136.264 175.337L127.693 134.75Z" fill="white"/>
<path d="M127.868 134.625L125.024 135.714L117.115 147.615L126.655 147.629L120.688 150.687L135.089 175.949C135.489 175.746 135.884 175.537 136.281 175.328L127.868 134.625Z" fill="#EEF3F7"/>
<path d="M118.093 102.62C117.789 105.688 118.404 112.5 122.125 112.241C122.125 112.241 127.482 127.853 137.795 129.621C146.698 127.993 152.114 113.854 152.525 112.509C153.752 112.928 157.183 107.217 154.553 102.546C153.799 101.207 151.662 102.292 151.662 102.292L151.498 98.3915C137.428 99.7582 128.655 86.1497 128.655 86.1497C123.291 91.9832 122.001 95.3138 121.428 102.57C121.428 102.57 120.42 101.943 119.302 101.92C118.966 101.913 118.533 102.206 118.093 102.62Z" fill="#FFE9D0"/>
<path d="M128.54 134.432L130.363 125.279C125.084 120.081 122.33 112.241 122.33 112.241C118.733 112.642 117.288 102.728 119.709 102.381C120.816 102.223 121.556 102.57 121.556 102.57C122.101 94.9084 123.577 92.5776 128.655 86.1497C128.655 86.1497 137.524 101.072 151.583 99.7055L151.784 102.923C152.449 102.269 153.663 101.656 154.676 103.32C156.322 106.029 154.168 112.186 152.174 112.56C151.891 113.509 149.672 120.513 144.97 125.313L146.865 134.223C152.14 135.932 157.227 137.251 162.334 138.609C159.74 122.799 158.253 105.689 155.157 91.0834C152.184 77.0695 135.937 73.1493 126.595 79.3734C126.595 79.3734 118.539 82.6197 117.068 93.3855C115.597 104.151 116.161 105.189 116.161 105.189L113.565 138.338C118.378 137.116 123.952 136.011 128.541 134.432L128.54 134.432Z" fill="#666666"/>
<path d="M125.536 174.324L127.647 173.906C128.542 173.728 129.285 173.2 129.758 172.492C130.231 171.785 130.436 170.897 130.257 170L127.777 157.502C126.841 152.786 123.152 150.38 118.935 149.848C117.32 149.643 115.626 149.717 113.985 150.043C112.344 150.368 110.751 150.946 109.338 151.751C105.655 153.849 103.172 157.476 104.109 162.2L106.59 174.699C106.768 175.595 107.297 176.337 108.004 176.811H108.005C108.713 177.284 109.599 177.488 110.495 177.311L112.603 176.892L112.43 176.024L110.322 176.443C109.665 176.572 109.013 176.423 108.495 176.076C107.976 175.728 107.589 175.184 107.458 174.527L104.977 162.029C104.127 157.743 106.4 154.439 109.772 152.521C111.103 151.761 112.606 151.217 114.157 150.91C115.707 150.603 117.305 150.532 118.825 150.725C122.684 151.213 126.059 153.398 126.908 157.676L129.389 170.175C129.52 170.832 129.368 171.483 129.022 172.002C128.674 172.521 128.13 172.908 127.473 173.038L125.363 173.457L125.535 174.326L125.536 174.324Z" fill="#C3ADFF"/>
<path d="M128.446 159.355L128.068 157.446C127.103 152.583 123.306 150.106 118.972 149.557C117.324 149.349 115.599 149.423 113.928 149.755C112.257 150.086 110.634 150.675 109.193 151.495C105.405 153.653 102.853 157.388 103.82 162.258L104.199 164.168L105.647 163.88L105.267 161.971C104.446 157.831 106.651 154.635 109.917 152.776C111.222 152.033 112.694 151.5 114.214 151.198C115.735 150.897 117.3 150.828 118.791 151.016C122.53 151.489 125.798 153.601 126.619 157.733L126.998 159.642L128.445 159.355L128.446 159.355Z" fill="#4D4D4D"/>
<path d="M110.932 177.414L112.061 177.19C112.344 177.508 112.782 177.672 113.228 177.583C113.9 177.45 114.337 176.797 114.203 176.127C114.07 175.456 113.418 175.019 112.747 175.154C112.3 175.242 111.957 175.561 111.816 175.962L110.688 176.186L110.933 177.415L110.932 177.414Z" fill="#2A7307"/>
<path d="M126.433 174.337L125.306 174.562C125.166 174.964 124.823 175.282 124.375 175.371C123.705 175.503 123.052 175.068 122.919 174.396C122.786 173.725 123.222 173.072 123.893 172.939C124.341 172.85 124.779 173.015 125.061 173.332L126.188 173.107L126.432 174.337H126.433Z" fill="#2A7307"/>
<path d="M114.616 149.641L114.184 147.474L113.329 147.643L112.476 147.813L112.91 150.002C113.236 149.906 113.565 149.826 113.899 149.76C114.138 149.714 114.376 149.674 114.616 149.642V149.641Z" fill="#666666"/>
<path d="M112.768 176.207C112.972 176.167 113.103 175.97 113.063 175.767C113.023 175.563 112.826 175.432 112.623 175.471C112.419 175.511 112.288 175.709 112.327 175.912C112.367 176.115 112.565 176.247 112.768 176.206V176.207Z" fill="#522671"/>
<path d="M123.923 173.99C124.126 173.95 124.258 173.752 124.219 173.55C124.176 173.347 123.98 173.216 123.777 173.254C123.573 173.295 123.442 173.492 123.482 173.696C123.522 173.899 123.719 174.03 123.923 173.99Z" fill="#522671"/>
<path d="M125.051 135.765C125.012 135.765 111.699 135.876 113.947 147.525L112.71 147.762C110.174 134.63 124.996 134.509 125.037 134.507L125.051 135.765Z" fill="#4D4D4D"/>
<path d="M151.622 134.568C153.795 134.626 157.995 135.217 161.226 139.149C163.273 141.639 164.924 145.477 165.385 151.385C165 151.862 164.61 152.335 164.215 152.805C163.935 146.443 162.31 142.45 160.255 139.949C157.346 136.41 153.554 135.878 151.593 135.824L151.622 134.568Z" fill="#4D4D4D"/>
<path d="M51.8317 19.3142H98.6601C101.544 19.3142 103.903 21.6734 103.903 24.5571V55.3753C103.903 58.2587 101.544 60.6182 98.6601 60.6182H60.8411C58.555 65.2646 47.496 67.4206 47.496 67.4206C47.496 67.4206 50.9512 64.6746 52.8991 60.6182H51.8317C48.9484 60.6182 46.5889 58.259 46.5889 55.3753V24.5571C46.5889 21.6734 48.9484 19.3142 51.8317 19.3142Z" fill="#C3ADFF"/>
<path d="M111.427 23.7383C126.987 23.7383 139.6 33.7768 139.6 46.1596C139.6 53.2712 135.44 59.6076 128.949 63.7156C130.472 68.9156 135.178 72.6556 135.178 72.6556C135.178 72.6556 125.629 70.7926 122.444 66.8002C119.059 67.9467 115.335 68.581 111.426 68.581C95.8662 68.581 83.252 58.5424 83.252 46.1596C83.252 33.7768 95.8662 23.7383 111.426 23.7383H111.427Z" fill="white"/>
<path d="M51.7285 26.7429H84.5499V28.7686H51.7285V26.7429ZM51.7285 39.5075H75.7367V41.5332H51.7285V39.5075ZM51.7285 33.125H84.5499V35.1507H51.7285V33.125Z" fill="#FEFEFE"/>
<path d="M96.1997 39.0444H129.021V41.0701H96.1997V39.0444ZM96.1997 51.8098H120.208V53.8354H96.1997V51.8098ZM96.1997 45.4269H129.021V47.4526H96.1997V45.4269Z" fill="#522671"/>
</g>
<defs>
<clipPath id="clip0_1_479">
<rect width="186" height="186" fill="white"/>
</clipPath>
</defs>
</svg>
