<svg width="182" height="182" viewBox="0 0 182 182" fill="none" xmlns="http://www.w3.org/2000/svg">
<g clip-path="url(#clip0_1_554)">
<path d="M91.7966 157.475C94.8955 157.475 97.4077 154.963 97.4077 151.864C97.4077 148.765 94.8955 146.253 91.7966 146.253C88.6977 146.253 86.1855 148.765 86.1855 151.864C86.1855 154.963 88.6977 157.475 91.7966 157.475Z" fill="#522671"/>
<path d="M115.3 163.64C118.249 163.64 120.639 161.25 120.639 158.301C120.639 155.353 118.249 152.962 115.3 152.962C112.351 152.962 109.961 155.353 109.961 158.301C109.961 161.25 112.351 163.64 115.3 163.64Z" fill="#DBCEFF"/>
<path d="M98.7459 132.736C101.695 132.736 104.085 130.346 104.085 127.397C104.085 124.448 101.695 122.058 98.7459 122.058C95.7972 122.058 93.4067 124.448 93.4067 127.397C93.4067 130.346 95.7972 132.736 98.7459 132.736Z" fill="#DBCEFF"/>
<path d="M119.342 144.086C123.058 144.086 126.071 141.073 126.071 137.357C126.071 133.641 123.058 130.628 119.342 130.628C115.625 130.628 112.613 133.641 112.613 137.357C112.613 141.073 115.625 144.086 119.342 144.086Z" fill="#522671"/>
<path d="M98.7457 182C102.727 182 105.954 178.773 105.954 174.791C105.954 170.81 102.727 167.583 98.7457 167.583C94.7645 167.583 91.5371 170.81 91.5371 174.791C91.5371 178.773 94.7645 182 98.7457 182Z" fill="#FFE9D0"/>
<path d="M69.0533 29.8775L44.6318 51.6251L75.5705 86.3673L99.9919 64.6196C109.586 56.0763 110.437 41.373 101.894 31.7792C93.3503 22.1855 78.6471 21.3341 69.0533 29.8775Z" fill="#DBCEFF"/>
<path d="M20.2105 73.3731L44.632 51.6255L75.5706 86.3677L51.1492 108.115C41.5554 116.659 26.8525 115.807 18.3088 106.214C9.76506 96.6198 10.6168 81.9165 20.2105 73.3731Z" fill="#522671"/>
<path opacity="0.1" d="M101.894 31.7794C97.0533 26.3439 90.2357 23.7177 83.4903 24.0134C81.5822 30.232 82.2725 37.2106 85.9875 43.1619L93.6891 55.4988C95.0164 57.6252 94.5806 60.4089 92.6568 62.0163C78.2468 74.0571 59.8168 87.051 50.1775 91.0002C35.4362 97.0397 22.5568 81.7594 24.636 69.4325L20.4695 73.1425C10.9227 81.6443 9.72757 96.3252 18.1049 105.981C26.6166 115.793 41.4785 116.727 51.149 108.115L99.9919 64.6198C109.586 56.0764 110.437 41.3731 101.894 31.7794Z" fill="black"/>
<path d="M91.9518 35.5813L109.269 63.3207L148.732 38.6849L131.414 10.9455C124.611 0.0482223 110.262 -3.2708 99.3651 3.53218C88.4682 10.3352 85.1488 24.684 91.9518 35.5813Z" fill="#522671"/>
<path d="M126.586 91.0605L109.269 63.3211L148.731 38.6853L166.049 66.4247C172.852 77.322 169.533 91.6709 158.636 98.4738C147.738 105.277 133.389 101.958 126.586 91.0605Z" fill="#DBCEFF"/>
<path opacity="0.1" d="M158.636 98.474C159.683 97.8203 160.658 97.0955 161.563 96.3124C133.911 92.2487 97.8619 26.2373 99.4864 3.46094C99.4462 3.48546 99.4053 3.5075 99.3652 3.53239C88.4679 10.3354 85.1489 24.6842 91.9519 35.5815L126.586 91.0607C133.39 101.958 147.739 105.277 158.636 98.474Z" fill="black"/>
<path d="M59.752 126.628L88.0726 138.359C89.117 138.791 90.3145 138.295 90.7471 137.251L106.983 98.0535C107.416 97.0087 106.92 95.8115 105.875 95.3789L77.5546 83.6481C65.6862 78.7319 52.0795 84.3679 47.1634 96.2366C42.2472 108.105 47.8836 121.712 59.752 126.628Z" fill="#FFE9D0"/>
<path opacity="0.1" d="M90.7477 137.251L94.7464 127.597C61.297 121.231 50.066 101.463 52.6837 88.2278C50.3678 90.4121 48.461 93.1048 47.1639 96.2365C42.2478 108.105 47.8837 121.712 59.7525 126.628L88.0731 138.359C89.1175 138.792 90.3147 138.295 90.7477 137.251Z" fill="black"/>
<path d="M154.569 126.628L126.248 138.359C125.204 138.791 124.006 138.295 123.574 137.251L107.338 98.0535C106.905 97.0087 107.401 95.8115 108.446 95.3789L136.766 83.6481C148.635 78.7319 162.241 84.3679 167.157 96.2366C172.073 108.105 166.437 121.712 154.569 126.628Z" fill="#522671"/>
</g>
<defs>
<clipPath id="clip0_1_554">
<rect width="182" height="182" fill="white"/>
</clipPath>
</defs>
</svg>
