<svg width="170" height="198" viewBox="0 0 170 198" fill="none" xmlns="http://www.w3.org/2000/svg">
<path d="M38.6533 38.1942V195.847C38.6533 197.036 39.617 198 40.8058 198H166.951C168.14 198 169.104 197.036 169.104 195.847V38.1942C169.104 37.0055 168.14 36.0417 166.951 36.0417H40.8058C39.617 36.0417 38.6533 37.0055 38.6533 38.1942Z" fill="#DBCEFF"/>
<path d="M166.951 36.0417H157.047C158.236 36.0417 159.199 37.0055 159.199 38.1942V195.847C159.199 197.036 158.236 198 157.047 198H166.951C168.14 198 169.103 197.036 169.103 195.847V38.1942C169.103 37.0055 168.14 36.0417 166.951 36.0417Z" fill="#522671"/>
<path d="M127.076 0C122.541 0 118.864 3.67692 118.864 8.21236V16.4247L135.288 22.8864V8.21236C135.288 3.67692 131.612 0 127.076 0Z" fill="#522671"/>
<path d="M139.752 56.6892C139.752 58.8703 139.705 61.1249 139.616 63.4258C139.183 74.5982 137.702 86.8378 135.274 97.0433L127.076 103.845L118.877 97.0433C116.448 86.8378 114.967 74.5982 114.534 63.4258C114.445 61.1249 114.402 58.8703 114.402 56.6892L127.075 52.822L139.752 56.6892Z" fill="#FFA95F"/>
<path d="M139.617 63.4258C139.184 74.5982 137.702 86.8378 135.274 97.0433L131.107 99.7503L126.855 97.0433C129.233 84.7418 130.486 69.4741 130.486 56.6892L139.617 63.4258Z" fill="#FF8B5A"/>
<path d="M118.879 97.042C120.602 104.274 122.802 110.486 125.449 114.567C126.215 115.747 127.938 115.747 128.704 114.567C131.35 110.486 133.55 104.274 135.273 97.042H118.879Z" fill="#522671"/>
<path d="M128.704 114.567C131.351 110.486 133.55 104.274 135.273 97.042H126.853C125.857 102.196 124.665 106.835 123.285 110.549L123.289 110.562C123.972 112.052 124.691 113.399 125.448 114.567C126.215 115.747 127.938 115.747 128.704 114.567Z" fill="#390D57"/>
<path d="M151.547 51.1532C149.897 51.1532 148.559 49.8155 148.559 48.1654V29.4846C148.559 28.061 147.403 26.9028 145.981 26.9028H138.954C137.303 26.9028 135.966 25.5652 135.966 23.915C135.966 22.2649 137.303 20.9272 138.954 20.9272H145.981C150.698 20.9272 154.535 24.7662 154.535 29.4846V48.165C154.535 49.8155 153.197 51.1532 151.547 51.1532Z" fill="#522671"/>
<path d="M138.256 16.4248H115.896C115.07 16.4248 114.401 17.0938 114.401 17.9195C114.401 17.9195 114.448 61.1272 114.538 63.4254H139.614C139.703 61.1272 139.751 58.8714 139.751 56.6907V17.9195C139.751 17.0938 139.082 16.4248 138.256 16.4248Z" fill="#FFE9D0"/>
<path d="M130.486 17.9195C130.486 17.9195 130.449 61.1268 130.377 63.4254H139.615C139.704 61.1272 139.752 58.8714 139.752 56.6907V17.9195C139.752 17.0938 139.082 16.4248 138.257 16.4248H129.275C129.944 16.4248 130.486 17.0938 130.486 17.9195Z" fill="#E0C09C"/>
<path d="M12.8945 174.005C6.2685 174.005 0.896973 179.376 0.896973 186.002C0.896973 192.628 6.2685 198 12.8945 198H26.6563L34.6243 186.002L26.6563 174.005H12.8945Z" fill="#522671"/>
<path d="M26.6562 198H40.418C47.0441 198 52.4156 192.628 52.4156 186.002C52.4156 179.376 47.0441 174.005 40.418 174.005H26.6562V198Z" fill="#FFE9D0"/>
<path d="M25.269 118.726C20.5835 114.04 12.9872 114.04 8.30205 118.726C3.61696 123.411 3.61657 131.008 8.30205 135.693L18.0331 145.424L32.4751 143.563L35 128.457L25.269 118.726Z" fill="#522671"/>
<path d="M18.0332 145.424L27.7642 155.155C32.4497 159.84 40.046 159.84 44.7315 155.155C49.417 150.469 49.417 142.873 44.7315 138.188L35.0005 128.457L18.0332 145.424Z" fill="#FFE9D0"/>
<path d="M89.9927 84.9377L94.6921 80.2383C95.8592 79.0716 95.8592 77.1798 94.6921 76.0127C93.5254 74.8459 91.6336 74.8459 90.4664 76.0127L85.767 80.7121L79.8742 74.8196C85.472 74.3625 89.8883 69.6643 89.8883 63.9509C89.8883 57.9363 84.9948 53.0427 78.9797 53.0427H67.6245C65.9744 53.0427 64.6367 54.3804 64.6367 56.0305V85.5785C64.6367 87.2287 65.9744 88.5663 67.6245 88.5663C69.2746 88.5663 70.6123 87.2287 70.6123 85.5785V74.8591H71.4627L81.5414 84.9377L76.8416 89.6375C75.6744 90.8043 75.6744 92.6961 76.8416 93.8632C78.0087 95.0303 79.9001 95.0299 81.0672 93.8632L85.767 89.1634L90.0267 93.4231C91.1938 94.5902 93.0853 94.5899 94.2524 93.4231C95.4195 92.2564 95.4195 90.3646 94.2524 89.1974L89.9927 84.9377ZM83.9127 63.9509C83.9127 66.6707 81.6999 68.8835 78.9801 68.8835H70.6127V59.0187H78.9801C81.6999 59.0187 83.9127 61.2315 83.9127 63.9509Z" fill="#522671"/>
<path d="M91.236 116.778H67.6245C65.9744 116.778 64.6367 115.44 64.6367 113.79C64.6367 112.14 65.9744 110.802 67.6245 110.802H91.236C92.8861 110.802 94.2238 112.14 94.2238 113.79C94.2242 115.44 92.8861 116.778 91.236 116.778Z" fill="#522671"/>
<path d="M139.941 145.637H67.8149C66.1648 145.637 64.8271 144.299 64.8271 142.649C64.8271 140.999 66.1648 139.661 67.8149 139.661H139.941C141.591 139.661 142.929 140.999 142.929 142.649C142.929 144.299 141.591 145.637 139.941 145.637Z" fill="#522671"/>
<path d="M139.941 174.496H67.8149C66.1648 174.496 64.8271 173.158 64.8271 171.508C64.8271 169.858 66.1648 168.521 67.8149 168.521H139.941C141.591 168.521 142.929 169.858 142.929 171.508C142.929 173.158 141.591 174.496 139.941 174.496Z" fill="#522671"/>
</svg>
